<?xml version="1.0" encoding="utf-8"?>
<!-- Generator: Adobe Illustrator 21.0.0, SVG Export Plug-In . SVG Version: 6.00 Build 0)  -->
<svg version="1.1" id="Layer_1" xmlns="http://www.w3.org/2000/svg" xmlns:xlink="http://www.w3.org/1999/xlink" x="0px" y="0px"
	 viewBox="0 0 176.8 129.3" style="enable-background:new 0 0 176.8 129.3;" xml:space="preserve">
<style type="text/css">
	.st0{fill:#faba35;}
</style>
<path class="st0" d="M88.4,129.3c-1.4-2.2-5.6-7.2-14.3-7.2c-4.5,0-9.3,1-14.8,2.2c-7.8,1.7-17.5,3.7-30.4,3.7
	C9.9,128,0,114.4,0,101.1c0-8.3,2.6-12.2,5.1-15.9c2.2-3.2,4.2-6.2,4.2-11.6c0-5-4.2-7.8-6.4-8.9c2.2-1.1,6.4-3.8,6.4-8.9
	c0-5.4-2-8.4-4.2-11.6C2.6,40.5,0,36.6,0,28.3C0,14.9,9.9,1.3,28.9,1.3c13,0,22.7,2.1,30.4,3.7c5.5,1.2,10.3,2.2,14.8,2.2
	c8.7,0,12.9-5,14.3-7.2c1.4,2.2,5.6,7.2,14.3,7.2c4.5,0,9.3-1,14.8-2.2c7.8-1.7,17.5-3.7,30.4-3.7c19,0,28.9,13.5,28.9,26.9
	c0,8.3-2.6,12.2-5.1,15.9c-2.2,3.2-4.2,6.2-4.2,11.6c0,5,4.2,7.8,6.4,8.9c-2.2,1.1-6.4,3.8-6.4,8.9c0,5.4,2,8.4,4.2,11.6
	c2.5,3.7,5.1,7.6,5.1,15.9c0,13.4-9.9,26.9-28.9,26.9c-13,0-22.7-2.1-30.4-3.7c-5.5-1.2-10.3-2.2-14.8-2.2
	C94,122.1,89.8,127.1,88.4,129.3z"/>
</svg>
